<svg id="Calque_1" data-name="Calque 1" xmlns="http://www.w3.org/2000/svg" viewBox="0 0 353.79 335.69"><defs><style>.cls-1{fill:#deb887;}.cls-2{fill:#cc4e32;}.cls-3{fill:#030303;}.cls-4{fill:#f1f1f1;}.cls-5{fill:#f2f2f2;}.cls-6{fill:#e2e2e2;}.cls-7,.cls-81{fill:#c5c5c5;}.cls-8{fill:#d1d1d1;}.cls-9{fill:#c6c6c6;}.cls-10{fill:#eee;}.cls-11{fill:#d5d5d5;}.cls-12{fill:#d2d2d2;}.cls-13{fill:#efefef;}.cls-14{fill:#9a9a9a;}.cls-15{fill:#161616;}.cls-16{fill:#0c0c0c;}.cls-17{fill:#989898;}.cls-18{fill:#e8e8e8;}.cls-19{fill:#cfcfcf;}.cls-20{fill:#d9d9d9;}.cls-21{fill:#e4e4e4;}.cls-22{fill:#ebebeb;}.cls-23{fill:#d3d3d3;}.cls-24{fill:#c9c9c9;}.cls-25{fill:#222;}.cls-26{fill:#121212;}.cls-27{fill:#d7d7d7;}.cls-28{fill:#e3e3e3;}.cls-29{fill:#e7e7e7;}.cls-30{fill:#ccc;}.cls-31{fill:#242424;}.cls-32{fill:#464646;}.cls-33{fill:#dbdbdb;}.cls-34{fill:#6a6a6a;}.cls-35{fill:#939393;}.cls-36{fill:#343434;}.cls-37{fill:#9b9b9b;}.cls-38{fill:#bebebe;}.cls-39{fill:#2e2e2e;}.cls-40{fill:#333;}.cls-41{fill:#454545;}.cls-42{fill:#414141;}.cls-43{fill:#4d4d4d;}.cls-44{fill:#8e8e8e;}.cls-45{fill:#5c5c5c;}.cls-46{fill:#a6a6a6;}.cls-47{fill:#a8a8a8;}.cls-48{fill:#282828;}.cls-49{fill:#535353;}.cls-50{fill:#111;}.cls-51{fill:#101010;}.cls-52{fill:#cacaca;}.cls-53{fill:#171717;}.cls-54{fill:#080808;}.cls-55{fill:#c3c3c3;}.cls-56{fill:#313131;}.cls-57{fill:#b5b5b5;}.cls-58{fill:#3b3b3b;}.cls-59{fill:#090909;}.cls-60{fill:#1b1b1b;}.cls-61{fill:#212121;}.cls-62{fill:#232323;}.cls-63{fill:#fcfcfc;}.cls-64{fill:#9e9e9e;}.cls-65{fill:#2d2d2d;}.cls-66{fill:#363636;}.cls-67{fill:#434343;}.cls-68{fill:#2b2b2b;}.cls-69{fill:#0f0f0f;}.cls-70{fill:#202020;}.cls-71{fill:#1f1f1f;}.cls-72{fill:#323232;}.cls-73{fill:#151515;}.cls-74{fill:#3c3c3c;}.cls-75{fill:#cdcdcd;}.cls-76{fill:#ededed;}.cls-77{fill:#383838;}.cls-78{fill:#c1c1c1;}.cls-79{fill:#2f2f2f;}.cls-80{fill:#838383;}.cls-81,.cls-82,.cls-83{stroke:#000;stroke-miterlimit:10;}.cls-82{fill:#c84e34;}.cls-83{fill:#368cc6;}</style></defs><title>logo</title><circle class="cls-1" cx="154.2" cy="154.2" r="154.2"/><path class="cls-2" d="M173.87,302.68l31.68,190.54s71.71,21.78,160.74-2.71l25.57-184Z" transform="translate(-123.63 -166.45)"/><path class="cls-3" d="M174.2,269.8l7-1.61c4.38-1.63,4.25-1.62,4.05-6.4-.12-2.78.13-5.63,3-7.32,1.21-.2,2.49-.84,3.43.57.53,4.11-.84,8.38,1.06,12.38a2.27,2.27,0,0,1-.92,2.93c-4.39,1.16-8.5,3.51-13.25,3.27a3,3,0,0,0-1.08.28c-1.69.58-4,1.42-3.53,3.21.56,2.07,3,1.29,4.72.87.88-.21,1.65-.5,2.47.06a2.4,2.4,0,0,1,.93,1.49c-.36,2.7-2.35,3.57-4.62,4a14.74,14.74,0,0,0-5.3,1.46c-1.17.68-3.17.31-3.31,2.3s1.15,3,2.88,3.57c2.38,1.31,4.72,3.31,7.32.38,1.37-2.24,1.23-5.74,5-5.95a2.42,2.42,0,0,1,1.52.84c1.36,1.49.72,3-.08,4.43a2.67,2.67,0,0,0,.68,3.86Q195,302.08,206,297.8c4.75-2,9.7-3.57,13-8,1.06-1.39,1.12-2.32-.05-3.46-2.95-1-6.23-1-8.93-2.9-.8-.55-1.82-.79-2.38-1.69a9.53,9.53,0,0,1-.59-2.15c.34-1.61,1.21-3.07,1.29-4.76a4.34,4.34,0,0,1,2-2.12,2.18,2.18,0,0,1,2.41.55c3.17,3.4,8.1,4.53,10.87,8.5a5.57,5.57,0,0,0,3.26,1.72c1.9,1,3.79.28,5.67,0a6.4,6.4,0,0,0,4.5-5.85c.13-2,1.26-2.83,3.24-3.44,4.79-1.51,8.95-4,10.75-9.17.64-1.83,1-4.06,3.84-3.73a2,2,0,0,1,1.3,1c.88,3.48-.86,6.69-1.16,10.06-.11,1.2-1.93,2.11-3.54,2.28a4,4,0,0,0-3.46,2.42c-1.1,2.43-.32,3.91,2.28,4.59,1.53.4,3.25-.43,4.63.78.43.63,1.05,1.14,1.13,2-.48,2.84-2.64,2.62-4.73,2.64-1.34,0-2.76-1.19-4,.22.49,2,2.18,1.5,3.39,1.56a7.15,7.15,0,0,1,6.15,3.85,20.72,20.72,0,0,0,22.73,9.72c2.95-.73,3.24-2.62,2.29-5.08-4.1-4-8.1-7.87-14.34-8.8-2.75-.41-6.17-1.7-7.54-5.07A3.57,3.57,0,0,1,263.3,281c3.85.88,7.58,2.17,11.69,2,4.74-.24,7.5-3.06,9.73-6.62a3.23,3.23,0,0,0-1.56-5,14.56,14.56,0,0,1-5.67-4.66c-1.8-2.18-4.37-3.24-7-4.05a4.08,4.08,0,0,1-3.4-2.82c-1.09-6.43-4.39-9.14-10.87-8.35a17.19,17.19,0,0,1-10-1.41c-4-1.92-8.29-1-12.16,1.23-1.8,1-3.58,1.9-5.44.13a4.2,4.2,0,0,1-.43-3,3.9,3.9,0,0,0-.4-2.83c-2.13-3.74.34-8,4.6-7.28,6.33,1,13.15,1.16,18,6.47.95,1,2.07,1.83,3.58.73,1.21-.88,2.61-.63,4-.43a47.51,47.51,0,0,0,8,1.9,8.83,8.83,0,0,1,5.67,3.28,3,3,0,0,1,.4,2.22,5.29,5.29,0,0,0,3.83,6c4,1.43,6.4,5.07,10,7.07a18,18,0,0,1,3.63,3.28c.67.66,1.41,1.24,2,2,.6,1.84,1.38,3.71,3.63,3.65,5.88-.18,9.92,3.54,14.1,6.7,2,1.54,4.93,2.24,5.85,5.09.05.24.09.48.16.72,1.45,4.77,1.45,4.77,6.13,3.21a9.94,9.94,0,0,1,1.77-.51,12.52,12.52,0,0,0,2.59-.28c1.39,0,1.73-1.21,2.42-2.07,2.43-3,5-5.82,8.93-7,3.35-1,3.67-2.53,1.56-5.26-4.25-5.48-7.57-6.58-14.29-4.74a7.26,7.26,0,0,1-1.82.41c-1.82,0-4,.67-5.13-1.25-1.22-2.07.7-3.38,1.81-4.81a4,4,0,0,1,2.06-1.23c1.78.17,3.5.8,5.33.73,2.6.77,5.4.56,8,1.48a12.89,12.89,0,0,1,2.24.23c4.25,1.53,5.92,5.53,7.77,9,2.53,4.71,6.35,7.15,11.17,8.59,1.48,0,2.76-1,4.25-1a1.9,1.9,0,0,1,1,.66,3,3,0,0,1,.36,1.21,25.88,25.88,0,0,1-.86,6.19c-.47,1.92-1.47,3.37-3.63,3.62a3.48,3.48,0,0,1-1.69-.73c-1.24-5.29-4.43-8.17-10-8.68-2-.19-3.47,1.13-5.3,1.14-3.1.47-5.72,1.37-5.5,5.33.05.86-.78,1.47-1.29,2.14-1.6,1.88-3.93,1.66-5.8,1.33-2.86-.52-5,.51-7.18,1.9a8.14,8.14,0,0,0-1.86,1.21c-.52.52-1.2,1.07-.89,1.89.38,1,1.39.89,2.2.79a57.58,57.58,0,0,1,6.94-.53,9.29,9.29,0,0,0,5,.37c3-.52,6.08-1.07,9.1-1.68a23.77,23.77,0,0,1,2.8-.5c2,.38,4.15,1.61,6-.51.94-.83,1.23-2.38,2.79-2.51a3.38,3.38,0,0,1,2.1.84c1.35,2.88,3.23,2.89,5.48,1,2.33-1.46,5.25-2.06,6.78-4.69a5.93,5.93,0,0,0,.9-2.45c.24-4.31,3.19-6.46,6.72-7.45a8.09,8.09,0,0,1,9.24,3.34c1.94,2,.58,4.17.47,6.27a3.06,3.06,0,0,0,2.14-3.6c-.18-1-1.14-1.59-1.27-2.6a8.85,8.85,0,0,0-2-5.85,2.82,2.82,0,0,1-.1-1.19,1.85,1.85,0,0,1,2.38-1.45c3.06.83,5,2.41,4.52,6a2.83,2.83,0,0,0,.42,1.94c2.08,2.07,2.63,4.58,2.94,7.39.22,2,2.57,3.2,2.93,5.4a14.43,14.43,0,0,1,.49,2.54,7.89,7.89,0,0,1-2.31,6c-.36.35-.6.95-1,1.07-7,2-7.19,8-7.84,13.61-2.19,19-5.72,37.73-8.94,56.54-2.47,14.37-4.09,28.89-6.51,43.27-.8,4.77-.79,9.65-2.13,14.33-1.27,1.43-2.58,2.1-4.16.45a6.17,6.17,0,0,1-.38-3.32c1.46-8.06,2.34-16.2,3.52-24.3,2.71-18.62,5.11-37.28,8.25-55.84,2-11.86,3.34-23.82,5.33-35.69.19-1.09.53-2.48-.76-3.34a2.76,2.76,0,0,0-2.64-.25,8.9,8.9,0,0,0-1.59.9c-.67.44-1.08,1.21-1.89,1.47-1.67.34-2-1.35-3.07-2a9,9,0,0,0-1.2-.7c-1-.3-1.88-1.34-3.14-.84-4.32,2-9.23.72-13.6,2.43a5.11,5.11,0,0,1-4.24.27,3.13,3.13,0,0,0-3.74-.31,17.05,17.05,0,0,0-3.22,1c-1.09,1.12-.61,2.56-.43,3.72.21,1.35.33,2.35-1,3.05-1.44.39-1.94-.84-2.69-1.53a13.39,13.39,0,0,0-.49,2.8c-.21,1.09-.48,2.33-1.92,2.25s-1.51-1.38-1.58-2.48c-.17-2.42.69-5-1.36-7.07-.73-1.19-1.41-.56-2.09.07A259.47,259.47,0,0,1,326.9,347c0,7.13-.51,14.24-.51,21.37-2.08,3.43-1.54,7.15-1.53,10.94a162.63,162.63,0,0,1-1.73,22.57c-.16,1.2-.37,2.5-1.7,3.13-1.19.27-1.79-.55-2.41-1.31a39.34,39.34,0,0,1,.14-12.11,88.89,88.89,0,0,0,.24-9.23c.63-6.28,1.36-12.55,1.58-18.87.51-3.06,1.73-6,1.35-9.2-1.42-8.67,1.27-17.07,1.81-25.61.14-2.31-.4-4.72.44-7,0-.36.05-.73.09-1.1.54-4.82-.4-5.87-5.12-5.61-.74,0-1.47.2-2.23.2a89.45,89.45,0,0,1-12.14.08c-3.22-.19-4.51,1.41-5,4.2a16.25,16.25,0,0,0-.26,2.6c-.32,12.37-1.33,24.74-.4,37.14a242.3,242.3,0,0,0-1.19,24.54c0,1.89.43,4.06-1.59,5.43-2.34,0-2-1.79-2.05-3.18-.1-3.7,0-7.4,0-11.11,0-8.27-.19-16.54,0-24.8-.57-9.4.95-18.76.69-28.15,0-1.75.74-4.19-2.24-4.62a4.3,4.3,0,0,1-2.13,1,8.13,8.13,0,0,0-.71.58c-1.81,4.6-.38,9.39-.89,14.06a4,4,0,0,1-.27,1.17c-.61,1.06-1,2.5-2.73,1.84a2.36,2.36,0,0,1-.76-2.66c-.34-4.85.62-9.64.8-14.47-.54,1.89,1.45,5-2.49,5.26a2.21,2.21,0,0,1-1.54-.71c-.69-.92-.45-2.05-.52-3.05-.29-4.1-.95-4.83-5.11-5-8.11-.4-9.07.5-9.08,8.66,0,8.87.07,17.75.16,26.63-.14,4.77-.17,9.54-.21,14.32,0,1.23-.14,2.54-1.87,2.63a2.84,2.84,0,0,1-1.67-3.05c.18-7.18-1.23-14.29-.74-21.47-.3-6.45,0-12.91-.22-19.37-.19-6.13-1.81-7.66-7.89-7.73A112.77,112.77,0,0,1,241,314.63c-.88-.13-1.85-.38-2.65.33-.86.93-.57,2.07-.66,3.17-.13,1.52-.61,2.89-2.48,3.06-1.77-.54-1.18-2.16-1.48-3.34s-.12-2.62-1.82-2.89-3.61,0-5.41.12a10,10,0,0,1-2.37-.37,4.22,4.22,0,0,0-1.82.35c-.56.32-1.07.66-1,1.41,0,.51.48.95.43,1.4-.19,2.17,1.66,5.61-1.36,6.14-3.52.61-1.28-3.44-2.44-4.66,0,1.21,1.07,3.77-1.15,3.75-2.63,0-1.59-3-2-4.52-.39,3.84,2.45,7.29,2.36,11.34A4,4,0,0,1,215,334c-2.95.46-3.3-1.7-3.45-3.71-.31-4.24-1.15-8.41-1.65-12.62-.22-1.79-.64-3.53-2.55-4.25s-3.37.06-4.48,1.71-2.78,1.3-4.39.92a3,3,0,0,1-1.9-.14c-1.49-.94-.27-3-1.68-4a15.3,15.3,0,0,0-6.6-1c-.56,0-1.12-.05-1.69-.06l-1.21,0c-3.06.59-3.21,3-2.87,5.23,2.51,16.3,5.15,32.58,7.54,48.9,1.49,10.13,2.69,20.32,4.31,30.42,1,5.93,1.46,11.95,2.67,17.88a138.82,138.82,0,0,1,2.14,14.4c.78,8.21,2.73,16.21,3.68,24.37.16,1.37.34,2.73.37,4.1-.2,1.76.53,3.51.07,5.27a2.93,2.93,0,0,1-3.67.95c-1.12-.93-1.3-2.32-1.66-3.58-2.48-12.09-3.58-24.39-5.08-36.62q-2.77-22.62-6.45-45.09c-3.19-19.68-6.32-39.37-10.32-58.91-.48-2.36-.38-4.87-1.71-7-1-1.19-2.44-1.69-3.73-2.43-4.14-2.39-6.54-7.27-5.19-11.74a5.6,5.6,0,0,0-.93-5.45c-2.42-3.43-2.2-5.71.44-9.08.73-.93,1.83-1.65,1.67-3.22-.51-4.89,2.31-7.48,6.56-9A5,5,0,0,0,174.2,269.8Z" transform="translate(-123.63 -166.45)"/><path class="cls-3" d="M385,278l-1.6,1.22c-.37,1-1.17,1-2,.82-1.82-1.83-5.21-.15-6.62-2.92-.22-1.78,1.86-1.79,2.33-3,1.44-2.76-.61-3.31-2.5-3.95-.62-.61-1.15-1.3-1.83-1.86-2-1.85-4.51-2.57-7.06-3.22-4.12.41-5-.09-5.69-3.22,2.39-2.5,5.3,0,7.86-.84,2.39-.2,2.78-1.46,1.8-3.44a19.77,19.77,0,0,0-1.61-2.37,3,3,0,0,1-.66-1.48c0-2.25.59-4.47.36-6.73.51-5.64-.49-6.54-6.3-7-3.55-.3-7-1.57-10.61-.16a12.51,12.51,0,0,0-4,1.93c-4.07,3.57-4.25,3.58-9,1a2.14,2.14,0,0,0-1.8,0c-1.52,1-2.51,2.88-4.71,2.59a2.13,2.13,0,0,1-1.9-1.14c-.69-1.62.6-2.52,1.34-3.61,1.33-1.94,2.09-4,1.14-6.32-1.73-4.35-10.14-9.06-14.73-7.88-4.4,1.12-8.5,1.91-13.09.18-4-1.5-6.78.74-7.27,5-.32,2.78-1.59,3.78-4.25,4.13-4.93.65-5.47,1.64-4,6.32a6.63,6.63,0,0,1-.06,5.1,4,4,0,0,1-3.08,2.6c-2.2,0-2.45-1.63-2.76-3.31-1.07-5.87-3.74-7.9-9.43-6.18-5.49,1.67-10.32,1.47-15.34-1.52s-10.5-3.24-16.08-1c-2,.79-4.06.19-5.92-1.07a41.23,41.23,0,0,0-6.63-3.75c-3.65-1.59-7.56-.93-9.68,1.51s-2.05,5.3,0,9c2.62,4.87,2.47,5.36-2.89,6.68-2.45.6-4.45,2.39-7.07,2.45-1.44-.69-1.2-2-1.23-3.22-.09-1.76,1.18-2.34,2.5-2.76s2.35-.83,2.61-2.29c-1.26-4.08-1.91-8,.95-11.87a19.3,19.3,0,0,1,4-3.76c5.52-2.78,10.85-1.54,16.11.83a12.27,12.27,0,0,0,9.45,2c4.08-.77,8.57-1.24,12.65.86,2.67,1,5.44,1.68,8.05,2.84a7,7,0,0,0,4.28.19c5.78-1.12,12-.2,17-4.51,1.43-1.23,4.19-.07,5.3-2.4,1.11-3,2.36-5.82,5.9-6.63a18.59,18.59,0,0,1,11.61-.28,6.71,6.71,0,0,0,5-.64,1.17,1.17,0,0,0,.27-.61,8.14,8.14,0,0,0,2.21,0c6.14-1.76,11-.18,14.61,5.23l2.37,1.58c4,1.1,4.36,5,6.06,7.89,2.3,4.09,2.21,4,5.79.9,4.41-3.81,9.49-4.62,15-2.66a22.41,22.41,0,0,0,4.8,1.35,16.13,16.13,0,0,1,5.81,2.11c3.13,1,3.6,3.76,4.38,6.35,1.22,2.58-.3,4.53-1.47,6.56-.72,1.26-1.24,2.54.1,3.76,1.82,2.69,3.25,5.44,3,8.91a3.9,3.9,0,0,0,1.62,3.49c3.32,2.28,4.53,5.77,5.33,9.49C383.73,276.33,385.29,276.69,385,278Z" transform="translate(-123.63 -166.45)"/><path class="cls-4" d="M210.42,251.84c2.82-1.88,5-5,9.71-3.72-1.11-1.85-1.82-3-2.48-4.13-2.67-4.6-2.44-8.5.65-11.58,2.89-2.87,8.76-4,12.11-1.16,5.5,4.68,10.73,5.94,17.69,3.21,4.45-1.75,8.92,1.48,12.92,3.62,3.24,1.74,6.19,2.32,9.57.8a13.85,13.85,0,0,1,6.93-1.23,7.21,7.21,0,0,1,7,7.66c0,1.24-.35,2.51.83,3.44,2.32,2.5,2.16,7.38-.29,9.27-.77.59-1.74.85-2.4.19-3.32-3.31-7.72-4.82-11.61-7.15-4-2.89-9.1-2.15-13.47-3.86-3.08-.26-6-.49-7.9-3.71-1.31-2.22-4.39-2.67-6.46-3-3.44-.52-6.59-2.17-10.09-2.19-1.59,0-3.23-.15-4.52,1.09-2.76,2.66-2.63,4.43.45,7,.9.75,2.89,1.06,1.43,3L229,251c2.06,2,2,4.78,2.41,7.35-1.83,3.11-6.61,3.59-9.6.81a39.88,39.88,0,0,0-3.12-2.55,37,37,0,0,0-8.47-3.72A.74.74,0,0,1,210.42,251.84Z" transform="translate(-123.63 -166.45)"/><path class="cls-5" d="M320.58,265.89c2.41,3.25-1.31,1.91-2.2,2.82,2.16,1,4.06.15,6-.45,5.66-1.74,12.25-.51,14.77,5.24.28.64,1,1.08,1.48,1.63,2.25,2.52,2,4.7-1.06,5.89-4.7,1.8-8.78,4.06-10.74,9.06-.58,1.47-2-.16-2.92.58-1.25-1.2-2.84-.91-4.34-1-2.68-.6-6,.78-7.75-2.64a10.63,10.63,0,0,0-6.3-4.89,5.65,5.65,0,0,1-2.62-1.27c-3.2-3.82-7.24-4.77-12-4.25-4.48.49-2.25-3.37-3.08-5.25a3.9,3.9,0,0,1,2.1-3.87c1.77-1.09,3.77-1.78,5.39-3.12,1-.55,1.79-1.46,2.85-2,4.89-1.67,9.73-3.75,15.07-2C317.87,261.38,320.06,262.83,320.58,265.89Z" transform="translate(-123.63 -166.45)"/><path class="cls-6" d="M328.71,311.61l-3.68,0c-2-2.35-4.79-1.77-7.35-1.65-1.75.07-3.48.43-5.22-.09a5.56,5.56,0,0,0-3.56.09,15.23,15.23,0,0,1-3.8.49c-2.61-1.1-5.2,0-7.8,0-11.26.2-22.52.68-33.8.37-6.1-.18-12.23.35-18.36-.2-12.48-.58-24.91-1.63-37.35-2.71-8.8-.76-17.52-2.1-26.31-2.75a8.44,8.44,0,0,1-3.06-.74c-1.64-.86-3.45-1.35-5-2.35-1.91-1.17-1.81-3-1.5-4.84.5-.34,1.13-1.07,1.48-.95,4.73,1.62,10.24.54,14.39,4.26a10.45,10.45,0,0,0,8.68,2.76c6.52-1.07,12.94-.22,19.39.23,13.08.92,26.18,0,39.26.7a36.67,36.67,0,0,1,11.27,2c4.64,1.73,9.69,2.23,14.56-.09a9.07,9.07,0,0,1,3.62-.76c15.7-.42,31.38-1.85,47.11-1.37,10,.3,19.91-1.08,29.88-1.38a5.46,5.46,0,0,1,2.94-.25c.87.07,2.31-.61,2.45.79.12,1.24-1.21,1.36-2.21,1.37-3.37.05-6.6,1.19-9.95,1.33-5.55.22-10.92,1.72-16.41,2.23C335,308.94,331.24,308.53,328.71,311.61Z" transform="translate(-123.63 -166.45)"/><path class="cls-5" d="M226.77,284.85c-2.85.23-5.06-.51-6.27-3.46a5.94,5.94,0,0,0-3.47-3.05,11.61,11.61,0,0,1-6-4.81c-2.13-3-1.19-5.81.38-8.61,4.16-4.65,9.31-6.41,15.31-4.63,2.38.71,3.5.09,4.73-1.85a7.06,7.06,0,0,1,7.78-3.09,82.45,82.45,0,0,0,12.22,2.15c3.2.2,4.26,2.22,3.12,4.79-2.49,2.25-1.11,6.26-2.83,8s-5.68,1.76-7.22,4.6c-1.4,2.56-2.65,4.24-5.7.38,1.12,5.81-.55,9-5.92,9.54-1.28.58-1.95-.92-3.06-.87-.12,0-.24,0-.37,0s-.36.08-.36.08l-.37.14A8.91,8.91,0,0,1,226.77,284.85Z" transform="translate(-123.63 -166.45)"/><path class="cls-4" d="M271.75,260.7c3.47,1.66,7.14,3,8.86,7,.51,1.15,1.78,1.13,2.86,1.44,3.69,1,5,3.93,3.5,7.42-3,6.88-10.65,10.13-18.75,7.92-1.32-.36-2.61-.8-3.92-1.21a3.33,3.33,0,0,0-3.2-.2c-2.4,1.53-4.91,1-7.41.9a29.09,29.09,0,0,0-4.33-1.14c-2.45-.29-3.91-1.5-4.24-3.92s1.36-4,3.14-5.09c4.76-3,4.8-2.93,6.35-8.51.2-.72.49-1.41.73-2.12.64-3,3.17-3.19,5.51-3.46C264.54,259.27,268.14,260.12,271.75,260.7Z" transform="translate(-123.63 -166.45)"/><path class="cls-4" d="M360.15,282.92a3.1,3.1,0,0,0-.61.41c-1.67,0-2.75,1.07-3.87,2.08-2.27.52-3.38-1.32-4.71-2.48-2-1.78-6.48-.94-6.62-3.1-.18-3-1.8-4.63-2.78-6.91a10.23,10.23,0,0,0-5.27-5.45c-.2-.48-.35-1.12.1-1.36,2.82-1.55,4.94-4.26,8.26-4.95,3.64.38,7.23-.7,10.87-.27a3,3,0,0,1,1.18.51,9.71,9.71,0,0,0,7.28,2c2.83.53,4.6,3.37,7.62,3.5,1.31.9,2.62,1.71,3.2,3.42.49,1.45.35,2.49-1,3.13-2,.94-3.09,2.82-4.81,4a6.62,6.62,0,0,0-2.08,2A20.45,20.45,0,0,1,360.15,282.92Z" transform="translate(-123.63 -166.45)"/><path class="cls-4" d="M210.33,275.7c3.26,3.57-.46,3.2-2.23,3.92-2.52,1.79-5.56,1.16-8.33,1.75a3.67,3.67,0,0,1-2.72-1c-4-3.69-8.65-3.92-13.56-2.37-1.08.34-2.21.34-3.27.74-2.52,2.33-5.51.95-7.7,0-1.88-.8-1-3.29.74-4.54a15.8,15.8,0,0,1,6.25-2.28c3.24-.65,6.76-.63,9.18-3.53.78-.93,1.55-.29,2.15.45,1.77,1.53,2.53-1.37,4-.93a2.56,2.56,0,0,0,2.36-1.18c.77-4.48,4.08-7.25,7-10.22.7-.71,1.74-1.22,2.47-2s1.7-1.82,3.14-1.34c3.09.28,6.23-.1,9.25.9a6.11,6.11,0,0,1,2.11,1.5c1.72,1.94,1.31,3.6-1.14,4.47-2.93,1.05-5.83,2.1-7.88,4.63C210,268.05,209.85,271.82,210.33,275.7Z" transform="translate(-123.63 -166.45)"/><path class="cls-4" d="M208.8,281c3.66-.12,6.11,4.29,10.22,2.69.49-.19,1.39.43,1.73,1.18.56,2.84-.49,4.44-3.48,4.65-1.12.08-2.47.13-3.17.95-4.08,4.81-9.8,5.05-15.38,5.75-1.52.36-3.12.2-4.62,1a3.1,3.1,0,0,1-3.51-.25c-1.76-1.49-3.88-1.41-6-1.59-2-1-2.53-2.46-1.41-4.49.64-1.18,1.12-2.44,1.68-3.66,1.57-4.15,6.8-6.89,12.48-6.47A16.82,16.82,0,0,0,200,281C202.9,280.19,205.85,279.68,208.8,281Z" transform="translate(-123.63 -166.45)"/><path class="cls-4" d="M230.61,258c-3.4-1.68-2-4.45-1.57-7,1.8.41,3-.8,4.39-1.57,5.2-2.86,10.53-3.86,15.77-.14,1.69,1.21,3.28.9,5,.39a12,12,0,0,1,11.86,2.5c2.14,1.82,3.81,4.05,2,7.11-4.91.62-9.84,2.43-14.62-.72a7.24,7.24,0,0,0-7.1-.37,3.1,3.1,0,0,1-3.73-.49c-3.06-2.72-6.27-2.46-9.57-.46C232.28,257.69,231.58,258.29,230.61,258Z" transform="translate(-123.63 -166.45)"/><path class="cls-4" d="M260.61,283.9c2.27.35,4.81,0,6.12,2.69.17.33,1.1.43,1.67.41,7.3-.24,10.91,5.43,15.43,9.62.79,2.32.33,3.95-2.37,4.36a5.33,5.33,0,0,0-2.63.91c-6.84.09-14.07.55-18.76-5.54-3.57-4.64-7.32-7.77-13.44-7.58-1.6.05-3.55-.81-2.64-3.34,1.53-1.55,3.33-1.21,5.13-.67a8.29,8.29,0,0,0,6.08-.09C256.9,283.65,258.62,282.81,260.61,283.9Z" transform="translate(-123.63 -166.45)"/><path class="cls-4" d="M287.48,281c5.75-2.86,11.29-3.92,16.2,1.66a5.4,5.4,0,0,0,2.95,1.48c3.33.77,5.62,2.56,5.7,6.32s-1.83,6-5.31,7.11c-2.44-.59-4.63.58-6.87,1.11-3.68.88-6.63-.47-9.31-2.61a21.2,21.2,0,0,1-5-6C284,286.87,286.29,283.89,287.48,281Z" transform="translate(-123.63 -166.45)"/><path class="cls-7" d="M336.87,307.11,366,303l-4.5-.36c6.58-1.27,13.44-1.05,19.79-3.58,1.74-.69,3.52-1.29,5.2-2.09s3-1.44,4.35.21a4.12,4.12,0,0,1,.33,5.19c-1.35,2.25-3.61,3-6,3.34-9.25,1.34-18.49,2.8-27.86,3.11a4.69,4.69,0,0,1-3.38,0c-5-1-10.14-.16-15.21-.51C337.91,308.26,337.14,308.07,336.87,307.11Z" transform="translate(-123.63 -166.45)"/><path class="cls-8" d="M287.48,281c.46,1.82,1,3.62.09,5.49-.25.53-.47,1.5-.21,1.76,2.26,2.26,3.14,5.63,6,7.37a8.25,8.25,0,0,0,8.87.16c2.4-1.37,3.72-.26,4.76,1.79-4.24,4.5,3.54,1.27,1.53,4.46-3.86.11-8.59,1.22-13.46.66a23.72,23.72,0,0,0-9-1.45c.05-4.18-.14-8.22-4.72-10.35-.79-.37-1.31-1.63-.67-2.26C283.14,286.2,283.8,282.21,287.48,281Z" transform="translate(-123.63 -166.45)"/><path class="cls-9" d="M171.89,297.25a10.33,10.33,0,0,0,2.42,3.93c1,2.07,2.54,2.55,4.58,1.55,8.87,1.82,17.86,2.77,26.84,3.73,7.43.8,14.88,1.43,22.33,2,5.82.44,11.65.68,17.48,1,.69,1.3.09,1.91-1.17,1.89-1.94,0-3.92.37-5.84-.28-8.11.3-16.16-.66-24.21-1.33-11-.91-22-2.12-33-3.34a32.21,32.21,0,0,1-7.23-1.76C170.66,303.42,169.89,300.42,171.89,297.25Z" transform="translate(-123.63 -166.45)"/><path class="cls-10" d="M332.47,292.22a8.06,8.06,0,0,0,.18-1.33c-4.07-1.14-1.21-2.72-.11-3.79a11.49,11.49,0,0,1,6.47-3.18c2.57-.91,4.8.43,7.16,1.05,3,1.58,5.61,3.6,6.5,7.13,1.38,1.54,2.17,3-.56,4L350.45,299c-1.09.4-2.1-.26-3.17-.22-2.11-.25-4.16-1.09-6.34-.46a41.12,41.12,0,0,0-7.17-2C332.06,295.36,332,293.87,332.47,292.22Z" transform="translate(-123.63 -166.45)"/><path class="cls-11" d="M244,285.43c2,4,5.87,3.41,9.11,3.2,3.56-.23,5.45.89,6.24,4.21a6.71,6.71,0,0,0,4.33,4.75,29.53,29.53,0,0,0,14.82,2.33c.46-1,1.64-.18,2.22-.88,2.11.57,3.08-.33,3.12-2.42,1.78,3.94-.9,5.67-3.68,7.26-4.59,2.63-16.45.11-19.87-5.07-1.83-2.77-5.06-4.64-6.85-7.85-1.12-2-3.93-.79-6-1.07C244,289.41,243,288.22,244,285.43Z" transform="translate(-123.63 -166.45)"/><path class="cls-10" d="M170.56,283.36a6.78,6.78,0,0,1,5.12-1.49c2.36.38,4-.69,5.33-2.42,4.07-4.23,11.26-4.46,15.35-.5,1.32,1.28,1.13,2.14-.71,2.48s-3.64.65-5.44,1.07a5.3,5.3,0,0,1-2-.49c-.62-.19,0,.38-.05.62-.53,2.18-2.56,2.64-4.1,3.65-2,1.53-2.67,3.89-3.77,6a2.16,2.16,0,0,1-3.21-.52,6.51,6.51,0,0,0-4.4-2.76c-1.37-.31-2.58-.72-3.2-2.12C169.16,285.5,169.9,284.44,170.56,283.36Z" transform="translate(-123.63 -166.45)"/><path class="cls-12" d="M234.94,293.65l-.65-.78c-.9-.43-2,0-2.85-.66-1.79-1-3.83-.91-5.77-1.27-.71-.47-1.11-1.31-1.93-1.65-1-1.36-1-2.67,1-2.25,6.12,1.3,11.58.28,16.41-3.79.21-.18.69,0,1.08,0-1.93,4.75-2,8.16,8.46,9.32-.71,1.58-1,3-3.42,1.84-3.91-1.85-6.71-1.15-9.55,2.15a4.29,4.29,0,0,1-2.83,1.43c-4.26.81-8.42,0-12.61-.49-.26-1.16.6-1.05,1.27-1.08,1.17,0,2.42.21,3.23-1,2.31-.77,4.8.27,7.09-.7A3,3,0,0,0,234.94,293.65Z" transform="translate(-123.63 -166.45)"/><path class="cls-13" d="M285.09,266.87c-.73-.09-1.76.1-2.14-.31-3.39-3.65-7.12-6.59-12.11-7.92-.42-.11-2.12-3.91-.57-6.2,3.12-1.66,5.54.14,7.61,1.93a26.8,26.8,0,0,0,16.64,7c1.41.08,3.77.24,3.42,2.94-1.59,2.72-5,2.59-7.1,4.52C288.58,269.19,287.4,266.4,285.09,266.87Z" transform="translate(-123.63 -166.45)"/><path class="cls-12" d="M198.22,295.18c.4-2,.4-3.76,3.4-1.74s6.12,0,8.28-2.14,4.48-3.82,7.71-3.82a3,3,0,0,0,3.14-2.64c1.63,3.32.77,6.35-2.84,9.15a24.13,24.13,0,0,1-11.37,5c-.82-.52-1.68.06-2.52-.11-1.91-.81-4.44.77-6-1.56A2.33,2.33,0,0,1,198.22,295.18Z" transform="translate(-123.63 -166.45)"/><path class="cls-14" d="M230.45,249.39a3.7,3.7,0,0,0-1.85-2.25c-3.82-2.15-3.09-5.1-1.52-8.22,1.49-3,4.23-2.42,6.54-1.84,4.7,1.18,9.44,2,14.23,2.78,2.15.32,4.49,1.9,4.85,3.61.66,3.08,2.88,3,4.84,3.73-4.39.71-8.4,1-11.31-3.7-1.77-2.87-12.56-4.59-15.67-3.16-1.23.56-2.62,1.15-2.66,2.78a3,3,0,0,0,2.43,2.95C233.49,247.14,232.13,248.23,230.45,249.39Z" transform="translate(-123.63 -166.45)"/><path class="cls-15" d="M230.61,258c4.08-3.14,8.28-4.53,12.67-.62,1.14,1,2,.42,3,0,1.62-.72,3.49-1.33,5-.43,5.28,3.08,11.09,1.95,16.7,2.4l3.72,1.41c-5.55.28-11.4-1.48-16.41,2.45l-.78-.86c-1.12-3.61-4-5.11-7.76-3.44-2.07.93-3.28.56-4.93-.72-3.46-2.69-7.24-2.07-10,1.51-1.06,1.37-1.95,2.44-3.95,1.79-5.89-1.9-11-.23-15.44,3.79-.77.12-1.15-.1-.85-.93,1.41-2.86,4.3-3.5,6.89-4.51,3.94-1.54,4-1.9.84-5.08-.19-.68-.07-1,.72-.71a5.38,5.38,0,0,1,3,3C224.26,260.08,228.3,260.55,230.61,258Z" transform="translate(-123.63 -166.45)"/><path class="cls-16" d="M297.21,264.44c-.19-2-1.88-2-3.06-1.72-5.54,1.22-9.44-1.65-13.3-4.88-3.11-2.59-6-5.62-10.58-5.4l.74-1.38c4.22-.35,7.13,2.27,10.19,4.53,2.66,2,3.74,1.57,4.52-1.74a10.27,10.27,0,0,0-.41-5.1c.51-1,1-2,1.54-2.95,2.09,1.08,1.92,3.35,2.69,5.12a4.69,4.69,0,0,1,.18,2.17c-.17,1-1.3,2.31.15,2.88s2.25-.9,2.87-2.1a2.06,2.06,0,0,1,1-.53A2.74,2.74,0,0,1,296,254.7a8.69,8.69,0,0,0,4,6.38c.28.83.69,1.65.22,2.54-.69.58-1.39,1.15-2.09,1.72C297.32,265.54,297,265.25,297.21,264.44Z" transform="translate(-123.63 -166.45)"/><path class="cls-17" d="M344.51,262.26c-2.58,2-5.12,4-8.22,5.21l-1.73-.57c-.81-2.15-2.72-1.39-4.28-1.66-1.36-.25-2.65.45-4,.13-1.83.44-3.57.49-5-1-1.91-.08-2.91-1.45-4-2.77-1.41-2.73.61-4.65,1.58-6.82a9.54,9.54,0,0,1,4.57-2.5c1.3.33,2.71.2,3.91,1,1.36,1.59.05,2.61-.72,3.87-1.46,2.38-.6,3.72,2.22,3.65.74,0,1.51-.4,2.2-.21,4.38,1.19,7.63.28,9-4.54,4.14-.2,4.68.2,5.89,4.29C346,261.32,345.27,261.81,344.51,262.26Z" transform="translate(-123.63 -166.45)"/><path class="cls-18" d="M356.52,293c2-.82,2.23-2.52,2.46-4.4a26.42,26.42,0,0,1,1.35-4.48,2.43,2.43,0,0,1,.76-.77,2.08,2.08,0,0,1,1.05-.05c2.89,3,7.11,5.29,5.68,10.6-1.81,2.76-4.5,3.87-7.65,4.16-1.67-.39-3.57.88-5.08-.69a6.59,6.59,0,0,1-.45-1,2.47,2.47,0,0,1-.1-1.65C354.71,293.6,355.6,293.31,356.52,293Z" transform="translate(-123.63 -166.45)"/><path class="cls-19" d="M255.22,301.78H235.77a53.3,53.3,0,0,1,4.47-5.46,4.46,4.46,0,0,1,7.16,1.2C248.9,301,252.55,299.89,255.22,301.78Z" transform="translate(-123.63 -166.45)"/><path class="cls-20" d="M198.22,295.18l.84,1.49c-.59,2,1,1.47,1.91,1.53s2-1.21,3.05-.07c1.51-1.6,2-.46,2.52.88-7.93,2.52-15.55,3.24-21.9-3.66,1.14-2.9,3.81-2.33,5.33-1.35C192.71,295.78,195.4,295.37,198.22,295.18Z" transform="translate(-123.63 -166.45)"/><path class="cls-12" d="M367.82,293.94c.63-2.06-1.78-1.92-2.36-3.24a72.17,72.17,0,0,0-3.75-6.69c.08-.38.21-.92.5-.95,5.33-.47,10-4.13,15.66-3.07,1.94,1.39,5.17,1.07,5.61,4.48.14,1.08.3,1.9-.77,2.49-5.4-5.85-11.33-4.52-13.85,3.12C368.45,291.35,368.16,292.65,367.82,293.94Z" transform="translate(-123.63 -166.45)"/><path class="cls-21" d="M332.47,292.22l2.22,3c1.81,3.38,1.46,4-2.94,5-1.05-.06-2.1-.05-3.14-.08a15.6,15.6,0,0,1-6.25-1.88,9.67,9.67,0,0,0-3-1.53,1.11,1.11,0,0,1-.32-1.38C322.92,291.76,328.09,293.67,332.47,292.22Z" transform="translate(-123.63 -166.45)"/><path class="cls-22" d="M195.2,269.05c-1.47.29-3,1.06-4.36-.21,2.35.24,1-.84.58-1.61-1.89-3.77-3.41-7.57-.48-11.55,0-1.91,1.19-3,2.59-3.92a2.41,2.41,0,0,1,1.1-.08c3,1.57.78,4.3,1.43,6.4,2.4,2.37,1,4.79.11,7.2C195.41,266.42,196.29,268,195.2,269.05Z" transform="translate(-123.63 -166.45)"/><path class="cls-23" d="M319,295.33l.76.69c1.49,1,2.79-.94,4.26-.29.37,2.29,3.47,1.48,4,3.56,1.44,3.09-1.46,2-2.54,2.6-3.11,0-6.23,0-9.35-.05-2.27,0-2.66-1-1.23-2.73A12.58,12.58,0,0,1,319,295.33Z" transform="translate(-123.63 -166.45)"/><path class="cls-24" d="M373,294.43c-1.63-2-1.49-2-1.8-3.92-.24-1.53.06-3,1.44-3.32,2-.46,4.16-1.35,6.32-.45.41.17.9.73.42,1.16-1.48,1.3-.59,2.41-.18,3.89.94,3.33-2.85.06-3.16,2A1.91,1.91,0,0,1,373,294.43Z" transform="translate(-123.63 -166.45)"/><path class="cls-25" d="M189.26,281.82l7.28-1.12c-4.25-4.85-7.94-5.12-15.53-1.25l-.79-.73c6.23-5.07,12.25-4.54,18.81,1.66.54.24,1,.53.7,1.23-5.41.64-10.84,1.19-14.82,5.59l-.84-.92c.75-1.79,2.84-2.23,3.82-3.79A1.33,1.33,0,0,1,189.26,281.82Z" transform="translate(-123.63 -166.45)"/><path class="cls-26" d="M382.71,287c.06-2.5-1.19-3.87-3.62-4.37-.7-.14-2.39.33-1.5-1.52-.47-3.27,1.94-2.56,3.73-2.7a1.4,1.4,0,0,1,.67.73l1.44.13.08.32c2.4,1.58.94,4.3,1.87,6.31a6.39,6.39,0,0,0,1.1,1.91c1,1.27,2.34,2.72.74,4.18s-3.37,2.23-5.23.33C381.11,290.36,383.11,288.82,382.71,287Z" transform="translate(-123.63 -166.45)"/><path class="cls-27" d="M330.94,299c2.08-.44,3.9-1.14,3.75-3.79,2.36-.71,4.24.42,6.13,1.56a4.37,4.37,0,0,1,.81,3c-3.06,1.42-6.42,1.48-9.65,2.1-.23-.09-.47-.13-.7-.21-.85-.28-2.26.52-2.53-.69C328.42,299.52,330.28,299.8,330.94,299Z" transform="translate(-123.63 -166.45)"/><path class="cls-6" d="M344.62,287.2c-1.1-2.43-3.22-3.09-5.61-3.28,6.66-1.94,12.86.33,16.41,5.86a2,2,0,0,1,.22,2.34,1.44,1.44,0,0,1-1.94.13C351.24,289.55,349.42,285.69,344.62,287.2Z" transform="translate(-123.63 -166.45)"/><path class="cls-8" d="M313.83,287l8.35,1.63c.17,1,2.19,1.27,1.06,2.76-3.72,0-6.36,2.77-9.94,3.87C315.1,292.46,314.21,289.73,313.83,287Z" transform="translate(-123.63 -166.45)"/><path class="cls-28" d="M170.56,283.36v3.54c.23,1.17,1.2,1.39,2.13,1.71,1.29.44,2.07,1.26,1.71,2.76-1,1.61-2.27,1.54-3.74.85C166.4,288.53,166.37,286.17,170.56,283.36Z" transform="translate(-123.63 -166.45)"/><path class="cls-29" d="M220.94,299.42c4.48.77,9,.35,13.43,1.34C229.72,301.85,225.14,302.2,220.94,299.42Z" transform="translate(-123.63 -166.45)"/><path class="cls-9" d="M382,292.28a23.23,23.23,0,0,0,2.51-.07c2.65-.36,3.46-1.61,1.65-3.86-.69-.85-1.59-1.54-1.29-2.81a.49.49,0,0,1,.78,0,19.93,19.93,0,0,1,2.32,2.83c1.32,2.39,1.41,4.42-1.91,5.31a32.78,32.78,0,0,0-4.57,2Z" transform="translate(-123.63 -166.45)"/><path class="cls-30" d="M170.66,292.22a3.37,3.37,0,0,0,2.89-1.46c1.39-1.67,2.91,0,4.36-.18l2.39,1.69c-.06.91,1,1.92.2,2.65-.7.6-1.61-.17-2.31-.62C175.89,292.82,172.69,294.66,170.66,292.22Z" transform="translate(-123.63 -166.45)"/><path class="cls-31" d="M341.63,299.79c-1.13.06-2.37-.39-2.66-1.26-.38-1.15,1.59-.71,1.85-1.73,2.53-.58,4.85.63,7.29.84,1.88,1.05.92,1.72-.38,2a23.22,23.22,0,0,1-4.42.13Z" transform="translate(-123.63 -166.45)"/><path class="cls-32" d="M354.14,291.54l1.5.58.88.92c-.39.73-1.09,1.35-.79,2.31.2.11.27.23.2.34s-.14.16-.21.16l.19.14,0,.23c-.59.85-1.26,1.4-2.27.56l-1.49-.69c.49-1.18,1.54-2.54-1.11-2.34-1.23.09-2.59.39-3.81-.41.58-1.4,1.93-.26,2.55-1.08A11.19,11.19,0,0,1,354.14,291.54Z" transform="translate(-123.63 -166.45)"/><path class="cls-33" d="M353.6,296.78l2.27-.56c1.39.73,3.29.29,4.3,1.88-1.49,2.17-3.87,2-6,1.88C351,299.72,354.11,297.82,353.6,296.78Z" transform="translate(-123.63 -166.45)"/><path class="cls-34" d="M286.07,301.19c4-3.27,5.7-3,9,1.45C292,302.64,288.88,302.88,286.07,301.19Z" transform="translate(-123.63 -166.45)"/><path class="cls-35" d="M234.94,293.65l0,1.67a13.29,13.29,0,0,1-7,.38c-.62-.1-1.32.1-1.83-.45l-3.19-.25C226.85,293.11,231,294.29,234.94,293.65Z" transform="translate(-123.63 -166.45)"/><path class="cls-36" d="M361,284a4.34,4.34,0,0,1-.62.16l-.18-1.24c1.23-2.58,4-2.88,6.12-4.1,1.12-1.55,2.66-1.18,4.18-.89a2,2,0,0,1,.79.91c.14,2.27-1.48,2.65-3.17,3C365.62,282.27,363.12,282.6,361,284Z" transform="translate(-123.63 -166.45)"/><path class="cls-37" d="M326.29,265.37c2.13-1.41,4.55-1,6.87-.95,1.49.06,2.38.84,1.4,2.48C331.88,266,328.86,266.91,326.29,265.37Z" transform="translate(-123.63 -166.45)"/><path class="cls-38" d="M226.77,284.85l1.44-2c-.37-1.1.13-1.38,1.12-1.18,1.7.48,2.52,1.95,3.56,3.17A7.88,7.88,0,0,1,226.77,284.85Z" transform="translate(-123.63 -166.45)"/><path class="cls-39" d="M297.21,264.44l.91.9c-2.28,2.68-6.54,2.61-8.3,6l-1.58-1.53a3.25,3.25,0,0,1,2.24-1.57Z" transform="translate(-123.63 -166.45)"/><path class="cls-40" d="M323.24,291.4c-1.33-1.56-3.11.06-4.73-.51.85-1.62,2.54-1.48,3.67-2.25,1.58.05,3.7-.88,3.74,2Z" transform="translate(-123.63 -166.45)"/><path class="cls-41" d="M193.82,252.59c-.48,1.47-1.81,2.16-2.88,3.09l-2.62-.32a10.64,10.64,0,0,1,3.17-3.69c.58-1,1.34-1.55,2.49-.78A1.43,1.43,0,0,1,193.82,252.59Z" transform="translate(-123.63 -166.45)"/><path class="cls-42" d="M211.61,264.29l.85.93c-1.42,2.61-1.5,5.45-1.44,8.31l-.69,2.17C208.57,271.65,209.48,267.9,211.61,264.29Z" transform="translate(-123.63 -166.45)"/><path class="cls-43" d="M199.73,281.61l-.7-1.23a22.08,22.08,0,0,1,9.07-.76l.7,1.35A31.74,31.74,0,0,0,199.73,281.61Z" transform="translate(-123.63 -166.45)"/><path class="cls-9" d="M290.48,268.25c-.53.82-1.07,1.65-2.24,1.57l-3.15-2.95C287.65,264.34,289.24,265.61,290.48,268.25Z" transform="translate(-123.63 -166.45)"/><path class="cls-44" d="M355.67,285.41c.9-1.48-.73-3.16.26-4.69,1.77.27,2.43,1.79,3.61,2.61C358.79,285,357.18,285.12,355.67,285.41Z" transform="translate(-123.63 -166.45)"/><path class="cls-45" d="M260.61,283.9l-5.41.77-1.51-.74c3.49-1,7-2.22,10.61-.7C263.06,283.4,261.74,283.11,260.61,283.9Z" transform="translate(-123.63 -166.45)"/><path class="cls-46" d="M343.31,299.77a10,10,0,0,1,4.27-.71c1.11,0,1.1-.66.53-1.42,1.08-.08,1.63.77,2.34,1.33C348.33,301.54,345.81,300.6,343.31,299.77Z" transform="translate(-123.63 -166.45)"/><path class="cls-38" d="M385.64,285.52l-.78,0-1.35-6C387.9,280.23,384.94,283.53,385.64,285.52Z" transform="translate(-123.63 -166.45)"/><path class="cls-47" d="M223.74,289.29l2.34.75c.54,1,2.55.31,2.33,2.12-.88.83-1.85.38-2.8.2l-3-.31C222.32,290.62,225.24,291,223.74,289.29Z" transform="translate(-123.63 -166.45)"/><path class="cls-48" d="M330.94,299c-1.87,1.76-1.53,2.71,1,2.86a19.6,19.6,0,0,1-6.44,0c1.59-.14,2.24-1.19,2.53-2.6A4.24,4.24,0,0,1,330.94,299Z" transform="translate(-123.63 -166.45)"/><path class="cls-14" d="M225.61,292.36l2.66-.73a2.53,2.53,0,0,1,3.77-.09l2.25,1.33C231.39,292.91,228.44,293.57,225.61,292.36Z" transform="translate(-123.63 -166.45)"/><path class="cls-49" d="M318.25,261.47c.62,1.37,2.07,1.87,3,2.88-.23.51-.47,1-.71,1.54a26,26,0,0,0-5.36-4.34,1.31,1.31,0,0,1,.81-1.25C317.11,260.05,317.62,260.87,318.25,261.47Z" transform="translate(-123.63 -166.45)"/><path class="cls-7" d="M226.13,295.25l1.58.05q.28.27.15.48c-.08.13-.16.2-.23.2l-5.33,1.5a3.47,3.47,0,0,1-2.73-1.26C221.86,295.34,224.39,297.61,226.13,295.25Z" transform="translate(-123.63 -166.45)"/><path class="cls-50" d="M373,294.43c1.05,0,2.15.14,3-.65C375.56,296.52,374.14,294.78,373,294.43Z" transform="translate(-123.63 -166.45)"/><path class="cls-5" d="M293.71,254.07a3.94,3.94,0,0,1-.21.69c-4.8,2.38-5.25,2.16-5.88-3-.4-2-1.15-3.9-.77-6,.94-2.48-.25-4.48-1.8-6.1S284,237,285.63,236a12.54,12.54,0,0,1,7.07-2.09c1.49,0,2.43,0,2.33-2.16-.28-5.84,5-9.48,10.53-6.94a10.59,10.59,0,0,0,8.85.29,15.67,15.67,0,0,1,5.5-1c4.12,0,12.24,5.27,14,9,2.37,4.86-.69,7.72-3.65,10.69-.37,1-.58,2.24-1.9,2.44-.86.13-1.4.51-1.48,1.32-.45,4.69-4.19,5.59-7.7,6.76a2.7,2.7,0,0,1-1.51-.24,9.94,9.94,0,0,0-7.76-.59c-3.67-2-6.91-4.35-7.33-8.31.86,2.92.54,3.36-2.77,3-3-.32-4.91,1.12-5.24,4.06A2.4,2.4,0,0,1,293.71,254.07Z" transform="translate(-123.63 -166.45)"/><path class="cls-4" d="M335.46,241.22c.67-2.34,1.32-3.21,3.08-.52,1.9,2.91,3.94,2.84,6.33.25,3.77-4.08,8.92-5.37,13.87-3.33a8.33,8.33,0,0,0,4,.33c5.91-.43,8.38,2.88,6.54,8.68l-.82.64c-1.37.78-2.88,1.25-4.25,2.06-2,1.19-3.41,2.68-3.25,5.19-2.89,2.64-6.59,3-10.22,3.62-.88.14-2,.07-2.28-.8-.86-2.94-3.48-2.91-5.66-3.66s-4.89-1-3.93-4.64c.25-.95-1.29-2-2.18-2.86C335.2,244.76,334.55,243.2,335.46,241.22Z" transform="translate(-123.63 -166.45)"/><path class="cls-51" d="M343,252.38a41.28,41.28,0,0,0,6.52,2.12c3.38.92-.61,1.63.58,2.34,3.45.05,6.82-1.29,10.09-3a1.26,1.26,0,0,1,1.07-.29,1.42,1.42,0,0,1,1,1.33,3.58,3.58,0,0,1-1.09,2c-3.17,1.71-6.66,2.78-9.71,4.76a10.69,10.69,0,0,1-5.5-.12c-.66-5-.82-5.32-6.07-6.35-2.28-.45-4-1-5.41-3.25-1.77-2.83-3.88-2.8-6.47-.47a6.73,6.73,0,0,1-4.36,1.94l-3.93,2c-2.55,3.27-6.12,3.4-9.16,1.71-3.3-1.83-6-1.77-9.36-.47-3,1.15-4,0-3.89-3.47-.53,1-.15,2.76-2.12,2.6l-1.44-1.74c-.95-5.42,1.09-7.2,8.34-7.19-.35-2.4-1.84-4.65-.67-8.29,1.53,6.19,3.81,11,8.6,14l.52-.06c2.82.75,5.76.31,8.6.82,3.15-1,6.48-1.51,6.33-6.29-.07-2.44,3.38-2,4.87-3.35l1.41.54c1,1,2.57.63,3.74,1.36,1.49.93,3.56,2.13,3.49,3.53C338.77,252.64,341.09,252.05,343,252.38Z" transform="translate(-123.63 -166.45)"/><path class="cls-19" d="M351.25,260.75c.23-.75-1.44-2.12.4-2.24,3.17-.22,5.55-2.43,8.53-3a16.73,16.73,0,0,1,4.06-1,9.87,9.87,0,0,1,5.58,6.94,2.08,2.08,0,0,1-.59.87,40.67,40.67,0,0,0-9,.05c-1.25,1.32-3.32,0-4.53,1.41l-.32.07-.32,0C354.21,262.31,351.78,262.72,351.25,260.75Z" transform="translate(-123.63 -166.45)"/><path class="cls-52" d="M343,252.38c-2.41.19-4.5.17-5.56-2.81-.67-1.87-2.76-2.71-4.7-3.3-1-.3-2-.69-1-2,1.66-.5,2.39-2.17,3.75-3,.91,2.24,2.86,3.66,4.29,5.49.87,1.11,3.75,1.94,1.28,4.39C340.53,251.6,342.5,251.63,343,252.38Z" transform="translate(-123.63 -166.45)"/><path class="cls-53" d="M367.77,275.78l2.37-.95c-.63-1-2.8-.19-2.13-1.53,1.08-2.15,3.61-.88,5.86-1.55-1.64-.77-.34-2.95-2.25-3.54.17-1.86,1.16-1.2,2.11-.69l1.52,1.54c3.21,2.63,3.61,4.09,1.82,6.59-2.51.59-4.81,1.93-7.47,2C368.25,277.66,366.9,277.87,367.77,275.78Z" transform="translate(-123.63 -166.45)"/><path class="cls-54" d="M209.51,254c-.66.65-1,1.71-2.11,1.77a9.78,9.78,0,0,1-1.78-.25c-1.55-1.47-4.49-.84-5.27-3.48.18-2.24,1.53-2.37,3.27-1.81,2.35,1,4.24.19,5.85-1.61a6.1,6.1,0,0,0,.95,3.25c0,.22,0,.44,0,.65C210.47,253.2,210,253.58,209.51,254Z" transform="translate(-123.63 -166.45)"/><path class="cls-19" d="M373.73,267.52c-.77,0-1.6-.12-2.11.69-4,1.15-5.14-2.08-6.89-4.4a2,2,0,0,1,2.23-.17C369.28,264.83,372.6,264.26,373.73,267.52Z" transform="translate(-123.63 -166.45)"/><path class="cls-43" d="M361.64,254.56l-.79-.68c-.21-3,2.41-3.7,4.19-5,1.15-.81,2.49-1.41,3.63-2.29a1.62,1.62,0,0,1,.62,0,28.07,28.07,0,0,1-.71,7.25A12.55,12.55,0,0,1,361.64,254.56Z" transform="translate(-123.63 -166.45)"/><path class="cls-55" d="M367.77,275.78c.07,1.15.76.92,1.53.77,2.48-.49,5-.93,7.48-1.4.94.13,2.05-.55,2.77.61-1.19,1.33-2.87.38-4.23.92-1.42,1.89-3.67,1.46-5.58,2-1.15.12-2.28.8-3.47.14C365.76,277.31,366.56,276.45,367.77,275.78Z" transform="translate(-123.63 -166.45)"/><path class="cls-11" d="M369.23,262.31l0-.92c.26-2.27-2.29-3.91-1.4-6.32.45-.42.92-.75,1.56-.42,2.38,1.73,2.71,4.55,2.85,7C372.43,264.5,370.36,262.39,369.23,262.31Z" transform="translate(-123.63 -166.45)"/><path class="cls-52" d="M379.55,275.76l-2.77-.61c1.52-2.54-1.13-4-1.53-6.09C379.85,269.26,379.09,272.9,379.55,275.76Z" transform="translate(-123.63 -166.45)"/><path class="cls-56" d="M369.74,278.68c1.5-1.67,3.52-1.89,5.58-2,2.1,1.17,5.34-.84,6.67,2.42a3.18,3.18,0,0,0-.67-.32c-2.27-.35-4.37.64-6.56.92-1.47.18-2.84.56-3.89-.88Z" transform="translate(-123.63 -166.45)"/><path class="cls-57" d="M369.42,254.65l-1,.94c-1.51,1.46-2.95-.65-4.44-.08l-3.83,0,1.46-.92c2.23-1.14,4.43-2.42,6.94-.69Z" transform="translate(-123.63 -166.45)"/><path class="cls-51" d="M367,263.64l-2.23.17c-3-.55-6,.71-9,0,.89-2.44,2.9-1.31,4.53-1.41Z" transform="translate(-123.63 -166.45)"/><path class="cls-43" d="M193.77,250.89l2.26-1.45c2.46,1,5.2-.94,7.59.76-1.36.13-2.36.63-2.28,2.23-2.17,2-4.48,1.2-6.8.35l-.72-.19Z" transform="translate(-123.63 -166.45)"/><path class="cls-45" d="M209.51,254l.9-1.48c3.3-.07,6.6-.07,9.65,1.5l-.72.71C216.15,253.35,212.77,254.48,209.51,254Z" transform="translate(-123.63 -166.45)"/><path class="cls-58" d="M274.26,246.79a3.94,3.94,0,0,1-2.43,2.62c-.6.24-1.37.09-1.31-.72.11-1.37,1.23-2.05,2.32-2.58A1,1,0,0,1,274.26,246.79Z" transform="translate(-123.63 -166.45)"/><path class="cls-59" d="M314,272.76c2.43.14,4.17.92,5,3a4,4,0,0,1-1,4.75,7.6,7.6,0,0,1-6.26,1.67c-2-.28.5-2-.53-2.82-1.39-1.08-4-2-3.36-3.78C308.76,273,312,273.43,314,272.76Z" transform="translate(-123.63 -166.45)"/><path class="cls-60" d="M316,260.8l-.77.75c-5.3-1.47-10.14.39-15,2.07l-1.48-1.24c3.28-4.3,10.19-6.16,15.21-4.16C315.19,258.71,316.09,259.32,316,260.8Z" transform="translate(-123.63 -166.45)"/><path class="cls-61" d="M339.46,280.58c-4-3.87-4-3.87-3.78-7.61C335.77,275.83,340,276.32,339.46,280.58Z" transform="translate(-123.63 -166.45)"/><path class="cls-48" d="M303.93,265.31c.17.7.41,1.1.31,1.37-.46,1.22.21,2.8-1.09,3.72a.77.77,0,0,1-1.18-.49C301.47,268.11,301.78,266.56,303.93,265.31Z" transform="translate(-123.63 -166.45)"/><path class="cls-62" d="M178.89,302.73c-.5,2.33-2,1.24-3.18.84s-2.71-.57-1.4-2.39Z" transform="translate(-123.63 -166.45)"/><path class="cls-63" d="M222.11,263.65c1.41,0,2.16-.06,2.9,0,3.46.3,6.26,2.94,6.21,5.83A5.73,5.73,0,0,1,225,275c-2.29-.23-3.77,2.7-6.25.91-2.12-1.54-5.81-7.16-4.65-8.22C216.44,265.56,218.86,262.82,222.11,263.65Z" transform="translate(-123.63 -166.45)"/><path class="cls-56" d="M241.09,269.21c.07-2.31,1.35-3.42,3.95-4.23A8.07,8.07,0,0,1,241.09,269.21Z" transform="translate(-123.63 -166.45)"/><path class="cls-64" d="M229.33,281.69c-.37.39-.75.78-1.12,1.18l-.71-.33a.59.59,0,0,1-.19-.55c0-.19.09-.29.14-.29C228.07,280.67,228.7,280.11,229.33,281.69Z" transform="translate(-123.63 -166.45)"/><path class="cls-38" d="M227.45,281.7c0,.28,0,.56.05.84a3.62,3.62,0,0,1-.17-.56C227.32,281.89,227.41,281.79,227.45,281.7Z" transform="translate(-123.63 -166.45)"/><path class="cls-17" d="M260.53,268c2.09-1.2,4.09-2.59,6.53-.5,1.88,1.61,4.14,2.8,6,4.46,2,1.84,2,3.74-.88,4.82a19.48,19.48,0,0,1-14.61-.16c-3.22-1.32-1.19-4.07-1.36-6.21C257,268.42,259.51,269.55,260.53,268Z" transform="translate(-123.63 -166.45)"/><path class="cls-65" d="M260.53,268c-.54,2.45-2.5,2.33-4.35,2.41C256.27,267.13,257.51,266,260.53,268Z" transform="translate(-123.63 -166.45)"/><path class="cls-43" d="M250.8,280.57c-1.18.16-1.55-.39-1.51-1.26s.18-2.3,1.19-2.47,1.92,1.26,2.15,2.05C253,280.12,251.35,280,250.8,280.57Z" transform="translate(-123.63 -166.45)"/><path class="cls-66" d="M354,276c-.5,2.09-.12,4.05-2.36,4.84-.55.2-1.1,0-1.09-.61C350.63,278.2,351.58,276.82,354,276Z" transform="translate(-123.63 -166.45)"/><path class="cls-60" d="M349,270.14c0,2.85-2.24,3.58-2.92,5.24a1,1,0,0,1-.91.26,1,1,0,0,1-.46-1.26C345.33,272.48,346.73,271.35,349,270.14Z" transform="translate(-123.63 -166.45)"/><path class="cls-53" d="M351.25,260.75c.89,1.52,3.74.58,3.85,3.07-3.33-1.89-6.94-1.86-10.59-1.56l.8-1.42a.42.42,0,0,1,.69.05A5.67,5.67,0,0,0,351.25,260.75Z" transform="translate(-123.63 -166.45)"/><path class="cls-25" d="M344.45,271.21c-.95-.12-1.21-.59-1.1-1.08a4.25,4.25,0,0,1,3-3c.64-.22,1.34.43.9,1.06A30,30,0,0,1,344.45,271.21Z" transform="translate(-123.63 -166.45)"/><path class="cls-3" d="M206.27,254.67l1.13,1.07c-4.05,3.18-7.85,6.53-8.46,12.12-2.81,1.62-4.65.4-5.07-3.37,1-1.91,3.71-3.62.65-6-.2-3.38.86-4.66,3.86-4.87C201.09,253.46,203.64,254.36,206.27,254.67Z" transform="translate(-123.63 -166.45)"/><path class="cls-28" d="M193.87,264.49c1.21,1.84,1.9,4.47,5.07,3.37-.7,2.12-1.66,3.39-3.74,1.19C193.9,267.78,192.34,266.58,193.87,264.49Z" transform="translate(-123.63 -166.45)"/><path class="cls-67" d="M173.64,276.82c.82-2.5,2.43-3,4.18-2.88,1.28.09.94,3,.13,2.59C176.46,275.71,175.43,276.69,173.64,276.82Z" transform="translate(-123.63 -166.45)"/><path class="cls-15" d="M203.38,266.89c-.28,1.84,1.81,3.93-.7,5.78C201.33,270.4,202.34,268.64,203.38,266.89Z" transform="translate(-123.63 -166.45)"/><path class="cls-39" d="M202.05,265.63c-.36,1.69-.71,3.39-1.16,5.51C199.53,268.29,199.53,268.29,202.05,265.63Z" transform="translate(-123.63 -166.45)"/><path class="cls-68" d="M265.76,294.66c1,.45,2.33.73,2.85,2,.22.51-.32.91-.86.9a3,3,0,0,1-2.9-1.9C264.68,295.22,265.06,294.71,265.76,294.66Z" transform="translate(-123.63 -166.45)"/><path class="cls-65" d="M280.71,299c.16.53.86,1.11.07,1.59-1,.61-1.4-.84-2.29-.71-.3-.44-1.05-.93-.38-1.42C279.05,297.81,279.86,298.74,280.71,299Z" transform="translate(-123.63 -166.45)"/><path class="cls-69" d="M294.88,288.34s-1.09,1.27-1.42-.14c-.26-1.13.74-1.8,1.76-2.05,2.9-.71,5.51-.24,7.37,2.28a3.71,3.71,0,0,1-.36,5.12c-.86.92-1.86,1.67-3.25,1,.73-1.49-2.44-2.9-.09-4.4,1.18-.75.36-1.27-.28-1.45A25.74,25.74,0,0,0,294.88,288.34Z" transform="translate(-123.63 -166.45)"/><path class="cls-15" d="M374.89,304.48c5.63-1.5,10.37-2.49,15-4.82C388.5,304,382.7,305.85,374.89,304.48Z" transform="translate(-123.63 -166.45)"/><path class="cls-70" d="M354.14,291.54c-1.32,1.12-2.91.65-4.4.72l1.27-1.1c-1.06-1.2-3.21.63-3.8-1.26-.29-.95,1.54-.57,1.75-1.64-1.24-1.17-3.22.52-4.34-1.06C349,285.22,349.64,285.51,354.14,291.54Z" transform="translate(-123.63 -166.45)"/><path class="cls-71" d="M177.91,290.58c-1.39,1.54-2.89.58-4.36.18-1-.7-1.86-1.47-2.87-2.08s-1.2-1.1-.12-1.78C173,288.22,176.19,287.89,177.91,290.58Z" transform="translate(-123.63 -166.45)"/><path class="cls-72" d="M189.26,281.82l-1.37.67c-1.6-.36-2.54,1.33-4.7,1.33a9,9,0,0,1,5.83-3.35C189.88,280.34,189.47,281.29,189.26,281.82Z" transform="translate(-123.63 -166.45)"/><path class="cls-73" d="M232,291.54l-3.77.09c-.92-.27-2.23,0-2.19-1.59,1.68,0,3.36-.13,5-.07C232,290,232.89,290.34,232,291.54Z" transform="translate(-123.63 -166.45)"/><path class="cls-3" d="M227.63,296a3.08,3.08,0,0,0,.08-.68l7.27,0C232.68,297.17,230.17,296.82,227.63,296Z" transform="translate(-123.63 -166.45)"/><path class="cls-74" d="M204,298.13c-2.7.9-5.4,1.48-8.77,0l3.81-1.42c1.08,1.49,2.37.44,3.56.26C203.63,296.77,204.33,296.83,204,298.13Z" transform="translate(-123.63 -166.45)"/><path class="cls-13" d="M316,260.8c-4.41-2.52-8.78-1.91-13.15.13-1.32.62-2.47,1.74-4.11,1.45-.48-.37-.94-1.05-1.44-1.08-4.67-.33-4.4-2.5-2.14-5.49a2.68,2.68,0,0,0,.42-2.8c-1.07-3.17,1.21-3.58,3.34-3.89a2.48,2.48,0,0,1,2.91,1.8c.45,1.41-.87,1.54-1.59,2.1a4.06,4.06,0,0,0-1.6,2c2.48-.53,5.76.33,5.81-4.84,4.37,5.27,9.22,7.28,15.24,5.28.23,2.18-2.51,3.65-1.43,6Z" transform="translate(-123.63 -166.45)"/><path class="cls-75" d="M287.62,251.77c.5,3.85,4,1.81,5.88,3,0,1.31-1,2-1.95,2.51a4.11,4.11,0,0,1-3.91.41c-1.54-.8-.51-2.18-.35-3.33C287.41,253.49,287.51,252.63,287.62,251.77Z" transform="translate(-123.63 -166.45)"/><path class="cls-53" d="M339.94,257.07c.74,1.23,2.2,2.28,1.26,4A4,4,0,0,1,337,263a49.58,49.58,0,0,0-11.16,0c-2.23.28-3.17-1-2.74-3.24.49-2.6,1.54-4.73,4.21-5.7a1.78,1.78,0,0,1,.82-1.19C331.16,251.43,338.18,253.93,339.94,257.07Z" transform="translate(-123.63 -166.45)"/><path class="cls-10" d="M339.94,257.07c-4.32-.53-8-3.74-12.62-3-1.24-.2-2.6.24-3.71-.69a7.73,7.73,0,0,0,2.94-2.82c.69-1.46.53-3.66,3.08-3.47s5.32,1,6.32,3.36c1.06,2.55,2.57,3.06,5,3.25,3.7.31,5.42,1.84,8.15,6.39-.83,1-2.13.24-3.07.78l-.34-.08-.35,0C343.53,259.57,342.75,256.87,339.94,257.07Z" transform="translate(-123.63 -166.45)"/><path class="cls-76" d="M370.87,278.82c2.25-.32,4.49-.76,6.76-.93,1.25-.09,2.71-.42,3.69.89l-3.73,2.29c-5.27,1.08-10.46,2.63-15.88,2.94H361c1.36-2,3.47-2.68,5.64-3.14A8.51,8.51,0,0,0,370.87,278.82Z" transform="translate(-123.63 -166.45)"/><path class="cls-3" d="M355.72,295.85a.94.94,0,0,0,0-.5l.62.3Z" transform="translate(-123.63 -166.45)"/><path class="cls-74" d="M324,295.73l-5.82,3.57c-.53-1.91.85-2.42,1.56-3.28C321.2,295.94,322.5,294,324,295.73Z" transform="translate(-123.63 -166.45)"/><path class="cls-52" d="M206.27,254.67c-1.74,1-3.43.82-5.34.25-3.76-1.11-5.89.22-6.41,3.61-1.75-1.92.82-3.83,0-5.75,2.24-.63,4.53-.33,6.8-.35C202.91,253.34,205.06,253,206.27,254.67Z" transform="translate(-123.63 -166.45)"/><path class="cls-77" d="M305.59,235.47c2.85-4.19,6.14-4.91,11.44-2.4A14,14,0,0,0,305.59,235.47Z" transform="translate(-123.63 -166.45)"/><path class="cls-62" d="M310,252.6c.66-.89.85-2.61,2.64-1.44s4.07.07,5.95,1c0,0,0,.2,0,.29a2,2,0,0,1-.21.3c-2.85,2.06-5.64,1.39-8.4-.19Z" transform="translate(-123.63 -166.45)"/><path class="cls-78" d="M310,252.55c2.8-.19,5.56,1.75,8.4.19l.74.62C315.92,254.65,312.73,256,310,252.55Z" transform="translate(-123.63 -166.45)"/><path class="cls-40" d="M305.9,245.4c2.69-.53,4.67-.76,7.43.18C310.54,246.9,308.55,247.05,305.9,245.4Z" transform="translate(-123.63 -166.45)"/><path class="cls-40" d="M315.13,249.74c1.61-.44,2.78-.74,3.94-1.08.69-.2,1.56-1.39,2,.06.3,1-1,1.4-1.66,1.56C318.14,250.55,316.78,251,315.13,249.74Z" transform="translate(-123.63 -166.45)"/><path class="cls-19" d="M368.67,246.63c-1.27,3.86-5.12,4.94-7.82,7.25l-.33,0-.33,0c-.7-3.92,1.05-6.3,5.21-7A32.25,32.25,0,0,1,368.67,246.63Z" transform="translate(-123.63 -166.45)"/><path class="cls-79" d="M364,255.51c1.51-1.45,3-.67,4.44.08.7,1.87,2.45,3.6.81,5.8a5.54,5.54,0,0,0-2.8-.83c-1-.18-2.4-.47-.43-1.56Z" transform="translate(-123.63 -166.45)"/><path class="cls-80" d="M198.48,256.56c1.14.23,2.29.26,2.43,1.5a1.26,1.26,0,0,1-1.29,1.48,2.6,2.6,0,0,1-2.49-1.81C196.9,256.71,198.06,256.88,198.48,256.56Z" transform="translate(-123.63 -166.45)"/><path class="cls-81" d="M454.25,478.85c7.38-7,1.95-15.89,3.63-23.73-4.33-25.55-8.66-51.09-13.45-79.4,17.74,7.37,22.61,18.25,21.23,32.87h0c13.86-7.48,13.79-22.07,6-29.4-22-20.64-33.68-45-40-73.88-1.78-8.09-11.08-18.77-23.13-7.12,11.51,6.13,11.54,16.49,11.71,27.66-7.74-.19-10.82-4.76-14.39-8.57h0c-14.43-11.87-28.91-23.67-43.26-35.63-19.75-16.46-57.38-4.61-65.74,20.79,12.54,22.23,25.6,44.18,37.42,66.79,6.34,12.11,13.13,17.89,27.14,11.36,5.37-2.51,13.39-6.11,17.85,2.1s-2.46,12.3-7.76,16.09c-10.82,7.73-12.55,15.87-5.28,27.69,12.41,20.18,23.74,41,34.75,62,5.7,10.85,11.92,14,22.92,7C433.56,489.29,444.08,484.34,454.25,478.85Zm-111.69-125c-3.12-5.87-6.46-11.63-9.7-17.44l.16-.09q-5.75-10.29-11.5-20.59c-4.55-8.08-1.75-13.52,5.81-17.9,8.14-4.71,14.77-4.68,19.76,4.31,7.05,12.69,14.2,25.32,21.3,38,5.35,9.53,1.64,16-7,21C352.12,366.43,346.78,361.84,342.56,353.89Zm31-37.34c41.16,16,63.35,55.28,58.92,105.5ZM405.3,466.62c-2.85-6-6.44-11.7-9.71-17.53-3.56-6.37-6.83-12.91-10.74-19-5.58-8.77-5.28-15,4.95-20.53,9.31-5,15.45-4.89,20.64,5.17,6.68,13,13.7,25.77,21.31,38.19,6,9.76,2.84,14.88-6.35,20.1C415.47,478.62,409.83,476.23,405.3,466.62Z" transform="translate(-123.63 -166.45)"/><path class="cls-82" d="M395.13,448.39c-3.56-6.36-6.83-12.91-10.74-19.05-5.58-8.77-5.27-15,4.95-20.52,9.31-5,15.46-4.89,20.64,5.17,6.68,12.95,13.71,25.76,21.31,38.18,6,9.77,2.84,14.88-6.35,20.11-9.92,5.64-15.57,3.25-20.1-6.36C402,459.89,398.4,454.22,395.13,448.39Z" transform="translate(-123.63 -166.45)"/><path class="cls-83" d="M333.07,336.33q-5.74-10.29-11.5-20.59c-4.55-8.08-1.74-13.52,5.81-17.89,8.14-4.72,14.77-4.68,19.76,4.3,7.05,12.69,14.2,25.32,21.3,38,5.35,9.52,1.65,16-7,21-9.3,5.31-14.64.72-18.85-7.23-3.12-5.87-6.47-11.63-9.71-17.44Z" transform="translate(-123.63 -166.45)"/></svg>